<?xml version="1.0" standalone="no"?>
<!DOCTYPE svg PUBLIC "-//W3C//DTD SVG 20010904//EN"
 "http://www.w3.org/TR/2001/REC-SVG-20010904/DTD/svg10.dtd">
<svg version="1.0" xmlns="http://www.w3.org/2000/svg"
 width="1536.000000pt" height="1024.000000pt" viewBox="0 0 1536.000000 1024.000000"
 preserveAspectRatio="xMidYMid meet">

<g transform="translate(0.000000,1024.000000) scale(0.100000,-0.100000)"
fill="#000000" stroke="none">
<path d="M2278 6441 c-78 -82 -113 -132 -160 -226 -188 -374 -140 -817 135
-1261 102 -165 92 -200 89 325 l-2 461 -110 0 c-61 0 -110 4 -110 9 0 5 67 64
150 131 82 68 147 126 145 131 -3 4 0 11 6 15 8 4 9 3 5 -4 -4 -7 -3 -12 2
-12 12 0 33 25 27 32 -3 3 3 11 12 19 16 13 17 12 4 -3 -21 -28 3 -21 30 8 20
23 21 25 4 17 -24 -13 -60 -1 -68 21 -4 9 -2 16 3 16 21 0 9 30 -12 31 -15 1
-18 3 -7 6 25 6 1 53 -28 53 -13 0 -31 12 -43 30 -12 17 -46 42 -75 56 -83 41
-83 43 29 162 28 28 48 52 44 52 -3 0 -35 -31 -70 -69z"/>
<path d="M2689 6223 c-13 -16 -12 -17 4 -4 16 13 21 21 13 21 -2 0 -10 -8 -17
-17z"/>
<path d="M2644 6188 l-19 -23 23 19 c21 18 27 26 19 26 -2 0 -12 -10 -23 -22z"/>
<path d="M2570 6129 l-45 -41 48 37 c41 33 53 45 45 45 -2 0 -23 -18 -48 -41z"/>
<path d="M2780 5970 c0 -16 2 -30 4 -30 2 0 6 14 8 30 3 17 1 30 -4 30 -4 0
-8 -13 -8 -30z"/>
<path d="M2900 5931 l0 -60 -60 3 c-32 2 -57 -1 -54 -6 3 -4 32 -8 65 -8 l59
0 0 65 c0 36 -2 65 -5 65 -3 0 -5 -27 -5 -59z"/>
<path d="M2974 5900 l1 -35 59 -3 c32 -2 63 1 67 5 4 4 -21 7 -56 5 l-64 -4
-4 34 -4 33 1 -35z"/>
<path d="M4385 5832 c-168 -92 -179 -344 -19 -438 39 -23 78 -32 241 -55 231
-34 259 -31 352 39 78 58 109 209 62 302 -57 111 -101 134 -312 160 -220 27
-262 26 -324 -8z m126 -145 c44 -33 49 -83 13 -126 -33 -39 -80 -42 -120 -7
-80 68 23 196 107 133z m348 -38 c33 -12 61 -52 61 -89 0 -12 -13 -35 -29 -51
-47 -46 -106 -37 -136 22 -23 44 0 99 50 120 11 4 20 8 21 8 1 1 15 -4 33 -10z"/>
<path d="M2780 5730 l0 -70 65 0 65 0 0 70 0 70 -65 0 -65 0 0 -70z m112 48
c-17 -21 -18 -62 -2 -75 13 -11 13 -12 -1 -13 -9 0 -19 6 -22 13 -3 7 -20 12
-41 12 -35 -2 -36 -1 -36 37 l0 38 56 0 c44 0 54 -3 46 -12z"/>
<path d="M2977 5793 c-4 -3 -6 -27 -6 -52 l2 -46 10 48 11 49 57 -4 c31 -2 55
0 52 5 -5 9 -117 10 -126 0z"/>
<path d="M6281 5775 c-252 -47 -423 -242 -438 -502 -11 -171 37 -308 147 -426
159 -171 427 -216 645 -108 44 22 98 58 120 81 l40 41 -64 59 -64 60 -38 -35
c-75 -68 -111 -80 -234 -80 -123 0 -165 14 -243 80 -142 122 -154 408 -22 558
70 80 225 124 341 97 70 -17 102 -33 153 -80 l42 -39 65 65 64 66 -49 43
c-119 106 -297 152 -465 120z"/>
<path d="M3097 5732 c-4 -24 -5 -48 -1 -54 4 -6 -16 -9 -59 -6 -36 1 -63 0
-60 -4 2 -5 31 -8 64 -8 68 0 72 5 67 71 l-3 44 -8 -43z"/>
<path d="M9000 5225 l0 -525 90 0 90 0 2 366 3 366 155 -251 155 -251 67 0 66
0 95 153 c52 83 121 194 153 245 l59 94 3 -361 2 -361 95 0 95 0 0 525 0 525
-98 0 -98 0 -44 -67 c-24 -38 -104 -165 -178 -283 -74 -118 -138 -219 -142
-223 -4 -5 -90 122 -190 282 l-183 291 -99 0 -98 0 0 -525z"/>
<path d="M11143 5632 l-73 -16 0 -87 0 -88 -57 -3 -58 -3 -3 -72 -3 -73 61 0
60 0 0 -227 c0 -206 2 -230 20 -268 35 -72 100 -105 205 -105 34 0 77 3 94 6
l31 7 0 73 0 73 -50 -6 c-64 -7 -105 9 -119 49 -6 18 -11 110 -11 214 l0 184
90 0 90 0 0 75 0 75 -90 0 -90 0 0 105 c0 78 -3 105 -12 104 -7 -1 -46 -9 -85
-17z"/>
<path d="M3344 5598 c-51 -56 -189 -234 -169 -218 19 14 19 14 6 -2 -7 -10
-18 -15 -23 -12 -5 3 -17 -1 -26 -8 -9 -8 -66 -43 -127 -77 -138 -77 -231
-146 -320 -237 -98 -100 -185 -252 -201 -351 l-6 -41 138 -138 c212 -212 448
-403 731 -592 125 -83 333 -214 333 -210 0 2 2 164 5 360 4 390 4 390 65 441
16 14 40 29 52 33 22 7 22 7 3 15 -11 4 -26 8 -32 8 -18 1 -91 -66 -98 -90 -6
-16 -16 -19 -79 -19 -193 0 -372 136 -402 305 -10 61 -22 79 -41 63 -30 -24 3
-200 48 -258 15 -20 19 -22 19 -7 0 9 5 17 10 17 7 0 7 -7 -1 -21 -9 -18 -7
-25 15 -48 14 -14 51 -42 83 -61 81 -47 93 -59 93 -91 0 -65 -99 -79 -219 -30
-174 71 -306 182 -336 283 -54 183 59 417 250 516 39 20 65 26 117 27 36 0 61
3 55 7 -9 6 -9 8 1 8 6 0 12 7 12 16 0 14 55 41 74 36 5 -2 5 5 0 15 -15 34
-16 139 -1 175 15 35 15 35 -8 24 -22 -10 -23 -14 -17 -90 3 -47 1 -77 -4 -73
-5 3 -20 -1 -34 -8 -41 -22 -77 4 -71 51 2 15 -22 71 -31 73 -5 0 -10 1 -14 1
-3 0 7 15 21 34 18 23 33 33 46 31 20 -4 25 5 9 21 -6 6 13 36 51 82 63 76 73
94 23 40z m-156 -880 c7 -7 12 -17 12 -22 0 -6 -5 -4 -10 4 -8 12 -10 10 -10
-9 0 -30 -9 -23 -16 13 -5 28 5 33 24 14z m86 -153 c-4 -8 -13 -15 -22 -15
-13 0 -12 3 4 15 24 18 25 18 18 0z m511 -15 c-3 -5 -13 -10 -21 -10 -8 0 -12
5 -9 10 3 6 13 10 21 10 8 0 12 -4 9 -10z"/>
<path d="M3583 5573 c15 -2 37 -2 50 0 12 2 0 4 -28 4 -27 0 -38 -2 -22 -4z"/>
<path d="M3528 5563 c7 -3 16 -2 19 1 4 3 -2 6 -13 5 -11 0 -14 -3 -6 -6z"/>
<path d="M3444 5525 c-10 -8 -14 -15 -8 -15 6 0 17 7 24 15 16 19 9 19 -16 0z"/>
<path d="M3399 5473 c-13 -16 -12 -17 4 -4 16 13 21 21 13 21 -2 0 -10 -8 -17
-17z"/>
<path d="M7093 5441 c-51 -13 -137 -58 -162 -85 l-23 -25 49 -52 50 -52 39 30
c48 37 93 53 153 53 85 0 148 -50 158 -127 l5 -41 -148 -4 c-130 -3 -156 -7
-201 -27 -97 -43 -151 -128 -140 -222 13 -106 81 -176 194 -200 91 -18 212 12
264 67 22 23 40 31 38 17 -1 -5 -1 -23 0 -40 l1 -33 81 0 80 0 -3 278 c-3 262
-4 279 -25 318 -28 53 -76 98 -132 125 -36 18 -67 23 -146 25 -55 2 -114 -1
-132 -5z m262 -469 c-1 -93 -71 -152 -182 -152 -54 0 -67 4 -94 28 -53 47 -41
119 26 155 23 12 138 25 205 23 l45 -2 0 -52z"/>
<path d="M7983 5439 c-32 -9 -97 -66 -120 -104 -10 -17 -12 -11 -12 43 l-1 62
-85 0 -85 0 0 -370 0 -370 89 0 90 0 3 228 c3 259 8 278 81 326 38 25 48 27
115 23 l72 -4 0 82 c0 66 -3 84 -16 89 -22 9 -93 6 -131 -5z"/>
<path d="M8403 5431 c-143 -53 -223 -169 -231 -332 -5 -104 14 -180 64 -257
78 -119 229 -179 387 -153 75 13 170 57 207 96 l22 24 -48 50 -49 51 -44 -30
c-71 -48 -145 -61 -224 -39 -69 19 -137 98 -137 159 0 20 5 20 260 20 233 0
261 2 267 16 12 31 -15 181 -41 233 -62 122 -146 173 -290 178 -71 3 -102 -1
-143 -16z m224 -147 c40 -30 63 -65 70 -107 l6 -37 -178 0 -177 0 6 31 c18 89
92 143 189 136 37 -2 67 -10 84 -23z"/>
<path d="M10445 5436 c-52 -16 -113 -49 -147 -78 l-27 -23 49 -54 48 -55 38
29 c74 56 165 70 241 36 48 -22 73 -62 73 -116 l0 -35 -124 0 c-244 0 -356
-72 -356 -227 1 -144 94 -226 255 -226 89 0 133 14 196 64 l39 31 0 -42 0 -41
83 3 82 3 -1 268 -1 268 -29 56 c-54 104 -150 154 -296 152 -46 0 -101 -6
-123 -13z m275 -454 c0 -64 -27 -111 -81 -140 -37 -20 -55 -23 -113 -20 -60 3
-71 7 -92 31 -41 47 -27 119 28 148 28 15 105 26 191 28 l67 1 0 -48z"/>
<path d="M11702 5432 c-102 -37 -179 -121 -213 -234 -59 -194 23 -407 184
-478 144 -64 330 -39 447 58 l34 29 -51 54 -52 54 -23 -21 c-39 -37 -89 -56
-155 -62 -111 -9 -208 57 -220 148 l-6 40 263 0 262 0 -4 94 c-3 80 -8 102
-36 159 -35 71 -79 114 -151 149 -63 30 -207 36 -279 10z m225 -148 c40 -30
63 -65 70 -107 l6 -37 -177 0 c-191 0 -187 -1 -165 57 14 37 56 82 94 99 42
20 138 13 172 -12z"/>
<path d="M3782 5170 c-48 -58 -104 -84 -179 -85 -61 0 -58 -13 3 -14 66 -2
164 53 198 109 23 40 17 37 -22 -10z"/>
<path d="M3415 5160 c10 -11 20 -20 23 -20 3 0 -3 9 -13 20 -10 11 -20 20 -23
20 -3 0 3 -9 13 -20z"/>
<path d="M3358 5102 c72 -74 88 -130 72 -252 -12 -95 -9 -112 33 -157 24 -27
46 -31 26 -5 -13 15 -12 16 3 3 10 -7 15 -17 12 -22 -10 -17 68 -41 145 -45
42 -3 93 -6 114 -8 34 -4 37 -2 25 12 -10 12 -10 14 0 8 7 -4 12 -2 12 4 0 6
5 8 10 5 6 -4 10 5 10 20 0 15 4 24 10 20 14 -9 12 29 -2 44 -11 11 -9 13 10
8 17 -4 22 -1 22 14 0 13 7 19 23 20 20 1 20 2 2 6 -32 8 -47 24 -35 38 7 9 6
16 -3 24 -17 14 -27 4 -27 -26 0 -29 -21 -30 -38 -2 -12 19 -15 20 -37 5 -31
-21 -35 -20 -35 4 0 13 5 18 15 14 8 -4 15 -1 15 4 0 6 -9 14 -21 17 -16 5
-19 12 -15 31 5 17 2 26 -9 30 -8 4 -15 12 -15 19 0 7 -13 27 -30 45 -16 18
-30 38 -30 46 0 8 -10 14 -22 14 -17 0 -19 3 -9 9 9 6 4 10 -17 13 -17 2 -29
1 -26 -4 3 -4 -2 -11 -10 -14 -8 -3 -18 -13 -21 -22 -4 -15 -65 -58 -69 -50
-1 2 -10 23 -19 47 -20 53 -12 67 40 77 l36 7 -24 18 c-26 20 -77 19 -89 -1
-9 -14 -21 -10 -59 17 -13 10 -1 -6 27 -35z m89 -294 c-3 -7 -5 -2 -5 12 0 14
2 19 5 13 2 -7 2 -19 0 -25z m27 17 c-4 -8 -8 -15 -10 -15 -2 0 -4 7 -4 15 0
8 4 15 10 15 5 0 7 -7 4 -15z m189 -192 c-7 -2 -21 -2 -30 0 -10 3 -4 5 12 5
17 0 24 -2 18 -5z"/>
<path d="M4259 5063 c-13 -16 -12 -17 4 -4 16 13 21 21 13 21 -2 0 -10 -8 -17
-17z"/>
<path d="M4181 4914 c0 -11 3 -14 6 -6 3 7 2 16 -1 19 -3 4 -6 -2 -5 -13z"/>
<path d="M3885 4800 c-3 -5 -1 -10 4 -10 6 0 11 5 11 10 0 6 -2 10 -4 10 -3 0
-8 -4 -11 -10z"/>
<path d="M12402 4738 c-6 -17 -9 -34 -7 -37 3 -2 5 1 5 8 0 7 4 10 8 7 4 -2
14 -1 22 5 13 7 12 9 -2 9 -11 0 -15 6 -11 20 8 31 -1 24 -15 -12z"/>
<path d="M4151 4605 c-2 -77 -6 -127 -8 -112 l-5 29 -69 -5 c-57 -4 -73 -1
-93 14 -40 31 -43 21 -4 -11 45 -37 73 -105 65 -160 -4 -29 -2 -38 6 -33 7 3
8 2 4 -3 -5 -5 -14 -9 -20 -9 -7 -1 -11 -6 -10 -11 3 -15 -48 -5 -69 14 -11 9
-18 29 -18 54 0 45 -28 78 -65 78 -14 0 -34 -9 -45 -20 -19 -19 -20 -33 -20
-370 l0 -351 40 23 c95 55 445 294 445 305 0 6 4 15 9 20 5 5 6 3 2 -4 -12
-21 4 -15 55 23 27 20 47 40 44 44 -3 5 0 12 6 16 8 4 9 3 5 -4 -14 -23 6 -11
75 44 82 66 91 81 17 26 -29 -21 -58 -37 -65 -35 -6 2 -14 0 -17 -6 -4 -5 -26
-3 -56 7 -41 14 -50 21 -51 42 -1 17 -3 19 -6 8 -5 -22 -17 -23 -32 -4 -9 11
-9 16 0 21 8 6 8 10 -2 15 -9 6 -10 12 -2 22 8 10 8 18 -3 32 -18 26 -18 40 1
32 8 -3 15 -1 15 4 0 9 -14 14 -32 11 -5 0 -8 3 -8 8 0 5 -7 17 -16 26 -14 13
-14 19 -4 28 10 9 11 9 6 -1 -12 -21 23 -26 39 -6 18 24 19 37 3 29 -7 -4 3 7
22 24 33 30 32 29 -34 -9 -52 -29 -73 -37 -83 -29 -9 8 -13 55 -16 168 l-3
156 -3 -140z m-33 -162 c9 -9 17 -21 17 -26 0 -6 6 -12 14 -15 9 -3 11 0 6 8
-6 9 -3 9 15 0 18 -10 20 -14 9 -22 -11 -7 -11 -11 -1 -15 6 -2 12 -16 12 -29
0 -21 -5 -24 -32 -24 -18 1 -44 7 -58 15 -31 17 -44 19 -34 3 4 -6 3 -8 -4 -4
-6 3 -10 14 -10 24 1 9 -2 36 -6 60 l-8 42 32 0 c17 0 39 -8 48 -17z m-183
-133 c3 -5 20 -14 38 -20 l32 -10 -35 5 c-33 5 -78 35 -53 35 7 0 15 -4 18
-10z m430 -210 c-10 -11 -21 -18 -23 -15 -3 3 3 12 14 20 27 20 30 18 9 -5z"/>
<path d="M4117 4666 c-6 -15 1 -26 15 -26 4 0 8 9 8 20 0 23 -15 27 -23 6z"/>
<path d="M3868 4640 c-28 -31 -41 -60 -26 -60 10 0 10 -2 0 -9 -16 -10 75 -22
107 -14 35 9 27 46 -17 77 -44 30 -42 30 -64 6z"/>
<path d="M4499 4603 c-13 -16 -12 -17 4 -4 9 7 17 15 17 17 0 8 -8 3 -21 -13z"/>
<path d="M4391 4535 c-66 -42 -80 -56 -26 -26 40 22 94 61 85 61 -3 0 -29 -16
-59 -35z"/>
<path d="M4719 4383 l-24 -28 28 24 c25 23 32 31 24 31 -2 0 -14 -12 -28 -27z"/>
<path d="M4639 4313 l-24 -28 28 24 c25 23 32 31 24 31 -2 0 -14 -12 -28 -27z"/>
<path d="M4579 4263 l-24 -28 28 24 c25 23 32 31 24 31 -2 0 -14 -12 -28 -27z"/>
</g>
</svg>
